<?xml version="1.0" ?><svg viewBox="0 0 512 512" xmlns="http://www.w3.org/2000/svg"><g id="Cloud_repairing_update"><path d="M171.3436,288.9816a6.5,6.5,0,0,0-6.5-6.5H123.3231c-47.207,0-85.8925-37.8818-86.2373-84.4443a85.0881,85.0881,0,0,1,85.0869-85.7363h.3555a41.7559,41.7559,0,0,0,37.7656-24.0625,94.9408,94.9408,0,0,1,172.2129-.001,41.7447,41.7447,0,0,0,37.7471,24.0635h.373A84.9776,84.9776,0,0,1,451.55,223.5666a6.5,6.5,0,1,0,12.3516,4.0566A98.0472,98.0472,0,0,0,370.6268,99.301h-.3554a28.7145,28.7145,0,0,1-25.9756-16.543,107.9417,107.9417,0,0,0-195.791,0A28.721,28.721,0,0,1,122.51,99.301h-.337a98.09,98.09,0,0,0-98.0869,98.832c.3975,53.6787,44.9151,97.3486,99.2373,97.3486h41.5205A6.5,6.5,0,0,0,171.3436,288.9816Z" fill="#8D60FF"/><path d="M123.2557,130.9016A66.4894,66.4894,0,0,0,56.7684,197.9a6.5,6.5,0,0,0,6.4991,6.4512h.05a6.5008,6.5008,0,0,0,6.4511-6.5488,53.489,53.489,0,0,1,53.47-53.9l.3564.0009h.0176a6.5,6.5,0,0,0,.0176-13Z" fill="#8D60FF"/><path d="M456.74,318.5148l-30.5508-2.6689a.1009.1009,0,0,1-.0878-.0791,114.2519,114.2519,0,0,0-11.57-27.6475.1048.1048,0,0,1,.003-.125l19.5888-23.34a13.0422,13.0422,0,0,0-.7714-17.7061L413.6825,227.28a13.0454,13.0454,0,0,0-17.707-.7725l-23.4932,19.7178a.1.1,0,0,1-.123.0039,114.2782,114.2782,0,0,0-27.7305-11.3857.1.1,0,0,1-.0791-.0869l-2.65-30.3428A13.0452,13.0452,0,0,0,328.8329,192.44H301.0145a13.0423,13.0423,0,0,0-13.0654,11.9747L285.28,234.965a.1012.1012,0,0,1-.0791.0889,114.1943,114.1943,0,0,0-27.6475,11.5693.1076.1076,0,0,1-.125-.0019l-23.3389-19.59a13.04,13.04,0,0,0-17.706.7715l-19.6709,19.669a13.0453,13.0453,0,0,0-.7715,17.707L215.66,288.674a.1034.1034,0,0,1,.0049.1211,114.1635,114.1635,0,0,0-11.3867,27.7315.1023.1023,0,0,1-.0879.0791l-30.3428,2.65a13.0451,13.0451,0,0,0-11.9736,13.0664V360.14a13.0423,13.0423,0,0,0,11.9746,13.0655l30.5508,2.6689a.0992.0992,0,0,1,.0879.0781,114.2313,114.2313,0,0,0,11.57,27.6485.1064.1064,0,0,1-.0019.125l-19.59,23.3388a13.0432,13.0432,0,0,0,.77,17.7061l19.67,19.6709a13.0405,13.0405,0,0,0,17.7071.7715l23.4941-19.7178a.1.1,0,0,1,.1221-.0039,114.225,114.225,0,0,0,27.7285,11.3848.1029.1029,0,0,1,.082.0879l2.65,30.3427a13.0452,13.0452,0,0,0,13.0664,11.9737h27.8174A13.0416,13.0416,0,0,0,342.64,487.3059l2.669-30.5508a.1011.1011,0,0,1,.0791-.0879,114.19,114.19,0,0,0,27.6474-11.57.105.105,0,0,1,.125.0029l23.34,19.5889a13.0413,13.0413,0,0,0,17.706-.7715l19.669-19.669a13.0424,13.0424,0,0,0,.7724-17.707L414.93,403.048a.1019.1019,0,0,1-.0039-.123,114.2782,114.2782,0,0,0,11.3857-27.7305.1.1,0,0,1,.0869-.0791l30.3408-2.6513a13.0418,13.0418,0,0,0,11.9756-13.0655V331.58A13.0417,13.0417,0,0,0,456.74,318.5148ZM318.72,423.7033c-1.9639.1494-3.97.2246-5.9609.2246a78.2709,78.2709,0,0,1-75.251-57.2138,6,6,0,1,1,11.5664-3.1993,66.2357,66.2357,0,0,0,63.6846,48.4131c1.69,0,3.3906-.0634,5.0547-.1894a6,6,0,1,1,.9062,11.9648Zm47.6533-22.654a18.0333,18.0333,0,0,1-26.6406-1.25l-41.7461-50.4133a3.1944,3.1944,0,0,0-4.7192-.2215,17.249,17.249,0,0,1-24.3941,0l-8.1206-8.1208a32.205,32.205,0,0,1-8.9116-28.6367,3.0084,3.0084,0,0,1,5.0845-1.6148l15.7822,15.7823a4.8136,4.8136,0,0,0,6.8071,0l12.3838-12.3836a4.8137,4.8137,0,0,0,0-6.8069l-15.7827-15.7824a3.0085,3.0085,0,0,1,1.6148-5.0845,32.2065,32.2065,0,0,1,28.6372,8.9114l8.1211,8.1211a17.2491,17.2491,0,0,1,0,24.3933l0,0a3.1945,3.1945,0,0,0,.2216,4.7192l50.4131,41.7464A18.033,18.033,0,0,1,366.3729,401.0493ZM390.496,353.08a6.0007,6.0007,0,0,1-5.9678,5.45c-.1836,0-.37-.0078-.5566-.0254a6,6,0,0,1-5.4248-6.5244c.1855-2.0147.2793-4.0733.2793-6.12A66.0867,66.0867,0,0,0,322.5419,280.51a6,6,0,0,1,1.7617-11.87,78.0868,78.0868,0,0,1,66.5225,77.2207C390.8261,348.2727,390.7147,350.7014,390.496,353.08Z" fill="#8D60FF"/></g></svg>