<svg width="65" height="74" viewBox="0 0 65 74" fill="none" xmlns="http://www.w3.org/2000/svg">
<path d="M3.18462 22.4975L0.1875 20.2663L32.4065 0V3.71859L3.18462 22.4975Z" fill="#473080"/>
<path d="M9.73913 26.402L6.55469 24.5427L32.5922 8.18091L64.8112 28.6332V32.5377L32.5922 12.0854L9.73913 26.402Z" fill="#473080"/>
<path d="M32.5908 16.3618L13.2969 28.4472L16.4813 30.6784L32.5908 20.4523L64.8098 40.9045V36.8141L32.5908 16.3618Z" fill="#473080"/>
<path d="M32.402 24.7288L19.8516 32.7237L23.036 34.583L32.402 29.0051V24.7288Z" fill="white"/>
<path d="M32.4062 29.0051V24.7288L64.8126 45.181V48.8996L32.4062 29.0051Z" fill="#473080"/>
<path d="M0 28.6332V24.5427L32.219 44.995V49.0854L0 28.6332Z" fill="#473080"/>
<path d="M41.9594 39.2312L32.2188 44.995V49.0855L45.1438 41.0905L41.9594 39.2312Z" fill="white"/>
<path d="M32.4063 53.176L0 32.9097V37.0001L32.4063 57.0805L51.513 45.181L48.3285 43.1358L32.4063 53.176Z" fill="#473080"/>
<path d="M32.4062 73.9999V69.9095L61.6282 51.5024L64.6253 53.5477L32.4062 73.9999Z" fill="#473080"/>
<path d="M58.2565 49.2713L55.072 47.412L32.5937 61.5427L0 41.2764V45.5527L32.5937 65.6332L58.2565 49.2713Z" fill="#473080"/>
<path d="M32.4062 3.53266V0L64.9999 20.0804V24.3568L32.4062 3.53266Z" fill="white"/>
<path d="M0 53.5477V49.4573L32.4063 69.9095V74L0 53.5477Z" fill="white"/>
</svg>
