<svg width="37" height="37" viewBox="0 0 37 37" fill="none" xmlns="http://www.w3.org/2000/svg">
<g id="appeals-light">
<g id="Edit Square">
<path id="Stroke 1" d="M18.1628 4.30176H12.208C7.31078 4.30176 4.24023 7.7627 4.24023 12.6624V25.8798C4.24023 30.7795 7.29644 34.2404 12.208 34.2404H26.2612C31.1744 34.2404 34.2306 30.7795 34.2306 25.8798V19.4762" stroke="white" stroke-width="2" stroke-linecap="round" stroke-linejoin="round"/>
<path id="Stroke 3" fill-rule="evenodd" clip-rule="evenodd" d="M13.9198 17.2295L25.8213 5.3491C27.304 3.87061 29.7073 3.87061 31.19 5.3491L33.1282 7.28386C34.6109 8.76394 34.6109 11.1645 33.1282 12.643L21.1693 24.5806C20.5211 25.2276 19.642 25.5917 18.7247 25.5917H12.7588L12.9085 19.5824C12.9308 18.6984 13.2923 17.8559 13.9198 17.2295Z" stroke="white" stroke-width="2" stroke-linecap="round" stroke-linejoin="round"/>
<path id="Stroke 5" d="M24.0117 7.18457L31.2836 14.4435" stroke="white" stroke-width="2" stroke-linecap="round" stroke-linejoin="round"/>
</g>
</g>
</svg>
