<svg width="40" height="40" viewBox="0 0 40 40" fill="none" xmlns="http://www.w3.org/2000/svg">
<path d="M19.323 7.71875H14.3377C10.2377 7.71875 7.66699 10.6214 7.66699 14.7307V25.8161C7.66699 29.9254 10.2257 32.8281 14.3377 32.8281H26.103C30.2163 32.8281 32.775 29.9254 32.775 25.8161V20.4454" stroke="#4F4F4F" stroke-width="2" stroke-linecap="round" stroke-linejoin="round"/>
<path fill-rule="evenodd" clip-rule="evenodd" d="M15.7699 12.5612L25.7339 2.59724C26.9752 1.35724 28.9872 1.35724 30.2285 2.59724L31.8512 4.2199C33.0925 5.46124 33.0925 7.47457 31.8512 8.71457L21.8392 18.7266C21.2965 19.2692 20.5605 19.5746 19.7925 19.5746H14.7979L14.9232 14.5346C14.9419 13.7932 15.2445 13.0866 15.7699 12.5612Z" stroke="#4F4F4F" stroke-width="2" stroke-linecap="round" stroke-linejoin="round"/>
<path d="M24.2197 10.1367L30.3077 16.2247" stroke="#4F4F4F" stroke-width="2" stroke-linecap="round" stroke-linejoin="round"/>
</svg>
