<svg width="23" height="24" viewBox="0 0 23 24" fill="none" xmlns="http://www.w3.org/2000/svg">
<path fill-rule="evenodd" clip-rule="evenodd" d="M7.9705 22.0198L18.9535 7.35497C19.5504 6.56416 19.7626 5.64986 19.5636 4.71892C19.3912 3.87261 18.8872 3.06792 18.1311 2.45747L16.2873 0.945204C14.6823 -0.372823 12.6926 -0.234083 11.5519 1.27818L10.3183 2.93057C10.1591 3.13729 10.1989 3.44252 10.3979 3.609C10.3979 3.609 13.515 6.18956 13.5814 6.24506C13.7936 6.45317 13.9528 6.73065 13.9926 7.06362C14.0589 7.7157 13.6212 8.32615 12.9712 8.4094C12.6661 8.45102 12.3743 8.3539 12.1621 8.17354L8.88575 5.48199C8.72657 5.35851 8.48781 5.38487 8.35517 5.55136L0.568923 15.9568C0.0648731 16.6089 -0.107565 17.4552 0.0648731 18.2738L1.05971 22.7273C1.11277 22.9632 1.31173 23.1297 1.55049 23.1297L5.92777 23.0742C6.72364 23.0603 7.46645 22.6857 7.9705 22.0198ZM14.0996 20.6328H21.2372C21.9336 20.6328 22.5 21.2252 22.5 21.9536C22.5 22.6833 21.9336 23.2744 21.2372 23.2744H14.0996C13.4032 23.2744 12.8368 22.6833 12.8368 21.9536C12.8368 21.2252 13.4032 20.6328 14.0996 20.6328Z" fill="#7650D5"/>
</svg>
