<svg width="40" height="40" viewBox="0 0 40 40" fill="none" xmlns="http://www.w3.org/2000/svg">
<path fill-rule="evenodd" clip-rule="evenodd" d="M33.4 31.989C33.4 37.4823 25.8667 38.1173 20.2017 38.1173L19.7963 38.117C16.187 38.1082 7 37.8803 7 31.9557C7 26.5744 14.2306 25.8553 19.8525 25.8282L20.607 25.8277C24.2161 25.8364 33.4 26.0643 33.4 31.989ZM20.2017 28.3273C13.1 28.3273 9.5 29.5473 9.5 31.9557C9.5 34.3857 13.1 35.6173 20.2017 35.6173C27.3017 35.6173 30.9 34.3973 30.9 31.989C30.9 29.559 27.3017 28.3273 20.2017 28.3273ZM20.2017 5C25.0817 5 29.05 8.97 29.05 13.85C29.05 18.73 25.0817 22.6983 20.2017 22.6983H20.1483C15.2783 22.6833 11.3333 18.7117 11.3499 13.845C11.3499 8.97 15.32 5 20.2017 5ZM20.2017 7.38C16.6333 7.38 13.73 10.2817 13.73 13.85C13.7183 17.4067 16.6 20.3067 20.1533 20.32L20.2017 21.51V20.32C23.7683 20.32 26.67 17.4167 26.67 13.85C26.67 10.2817 23.7683 7.38 20.2017 7.38Z" fill="#5E5E5E"/>
</svg>
