<svg width="28" height="28" viewBox="0 0 28 28" fill="none" xmlns="http://www.w3.org/2000/svg">
<path fill-rule="evenodd" clip-rule="evenodd" d="M13.1597 0C20.4159 0 26.3181 5.90222 26.3181 13.1584C26.3181 16.5818 25.0043 19.7042 22.8544 22.0475L27.0848 26.2691C27.4807 26.665 27.4821 27.3055 27.0862 27.7014C26.8889 27.9014 26.6281 28 26.3686 28C26.1106 28 25.8511 27.9014 25.6525 27.7041L21.371 23.4346C19.1188 25.2383 16.2631 26.3181 13.1597 26.3181C5.90357 26.3181 0 20.4145 0 13.1584C0 5.90222 5.90357 0 13.1597 0ZM13.1597 2.02686C7.02105 2.02686 2.02686 7.01969 2.02686 13.1584C2.02686 19.2971 7.02105 24.2912 13.1597 24.2912C19.2971 24.2912 24.2913 19.2971 24.2913 13.1584C24.2913 7.01969 19.2971 2.02686 13.1597 2.02686Z" fill="#BDBDBD"/>
</svg>
