<svg width="38" height="40" viewBox="0 0 38 40" fill="none" xmlns="http://www.w3.org/2000/svg">
<path fill-rule="evenodd" clip-rule="evenodd" d="M19.8201 0C21.2023 0 22.5459 0.56754 23.5091 1.55398C24.4705 2.54621 25.0013 3.90715 24.9608 5.28739C24.9647 5.59819 25.067 5.95724 25.2523 6.2719C25.5592 6.79311 26.0438 7.15989 26.619 7.31046C27.1943 7.45331 27.7966 7.37609 28.3081 7.07302C30.7791 5.66189 33.9237 6.50741 35.3348 8.95903L36.5375 11.0419C36.5683 11.0979 36.5954 11.152 36.6185 11.208C37.8965 13.6229 37.0432 16.6633 34.6688 18.0513C34.3233 18.2501 34.0434 18.5281 33.8503 18.864C33.5511 19.3832 33.4681 20.001 33.6187 20.5685C33.7731 21.1476 34.1418 21.6283 34.6611 21.9256C35.8329 22.5993 36.7073 23.7344 37.0567 25.0451C37.4061 26.3539 37.215 27.7747 36.5336 28.9465L35.2518 31.0815C33.8407 33.5061 30.696 34.3458 28.2502 32.9328C27.924 32.7455 27.5475 32.6432 27.173 32.6336H27.1615C26.6036 32.6336 26.0302 32.871 25.6133 33.286C25.1905 33.7088 24.9589 34.2725 24.9627 34.8709C24.9492 37.7067 22.6424 40 19.8201 40H17.4013C14.5656 40 12.2587 37.6951 12.2587 34.8593C12.2549 34.5099 12.1545 34.147 11.9672 33.8323C11.6641 33.3034 11.1738 32.9251 10.6082 32.7745C10.0465 32.6239 9.43066 32.7069 8.9249 33.0003C7.7126 33.676 6.28603 33.8401 4.98107 33.4733C3.67805 33.1046 2.55262 32.2089 1.89242 31.0217L0.685912 28.9426C-0.725216 26.4949 0.114511 23.3579 2.55841 21.9449C3.25143 21.5453 3.68191 20.8002 3.68191 20.001C3.68191 19.2018 3.25143 18.4547 2.55841 18.0551C0.112581 16.6343 -0.725216 13.4897 0.683982 11.0419L1.9928 8.89339C3.38462 6.47266 6.53119 5.61942 8.98474 7.02862C9.3187 7.22745 9.68162 7.32783 10.0503 7.33169C11.253 7.33169 12.2587 6.33946 12.278 5.11944C12.2703 3.77395 12.8012 2.48251 13.7683 1.50765C14.7393 0.534723 16.0288 0 17.4013 0H19.8201ZM19.8201 2.89561H17.4013C16.8029 2.89561 16.2431 3.12919 15.8203 3.55002C15.3995 3.97278 15.1698 4.53453 15.1736 5.13296C15.1331 7.95521 12.8263 10.2273 10.033 10.2273C9.13724 10.2177 8.27435 9.97635 7.52535 9.5285C6.47328 8.93007 5.09883 9.29878 4.48303 10.3702L3.17614 12.5187C2.57771 13.5573 2.94449 14.9298 4.01008 15.5494C5.59108 16.4645 6.57752 18.1709 6.57752 20.001C6.57752 21.831 5.59108 23.5355 4.00622 24.4525C2.94642 25.0664 2.57964 26.4312 3.19351 27.4929L4.4116 29.5932C4.71274 30.1356 5.205 30.5275 5.77447 30.6877C6.34201 30.846 6.96746 30.7784 7.48867 30.4889C8.25504 30.0391 9.14689 29.8055 10.0426 29.8055C10.4847 29.8055 10.9267 29.8615 11.3591 29.9773C12.6641 30.3287 13.7972 31.2012 14.469 32.373C14.9053 33.1084 15.1466 33.9675 15.1543 34.8439C15.1543 36.0986 16.162 37.1044 17.4013 37.1044H19.8201C21.0537 37.1044 22.0613 36.1044 22.0671 34.8709C22.0594 33.508 22.5922 32.2127 23.567 31.2379C24.5284 30.2765 25.872 29.6993 27.2155 29.7379C28.0958 29.7592 28.9432 29.9966 29.6903 30.4213C30.7655 31.0371 32.1381 30.6703 32.7597 29.6086L34.0414 27.4716C34.3271 26.9794 34.4102 26.3617 34.2577 25.7922C34.1071 25.2227 33.7287 24.7285 33.2191 24.437C32.0261 23.7498 31.1748 22.6418 30.8215 21.3136C30.4721 20.0106 30.6632 18.5879 31.3447 17.4161C31.7887 16.644 32.4392 15.9934 33.2191 15.5456C34.2654 14.9336 34.6321 13.565 34.0241 12.4994C33.999 12.4569 33.9758 12.4125 33.9565 12.3662L32.8253 10.4049C32.2095 9.33353 30.8389 8.96482 29.7637 9.57676C28.6016 10.264 27.2194 10.4609 25.8913 10.1115C24.5651 9.76787 23.4532 8.92814 22.7601 7.74287C22.3161 7.00159 22.0748 6.1387 22.0671 5.26036C22.0845 4.60016 21.8528 4.00753 21.432 3.57319C21.0131 3.14078 20.4243 2.89561 19.8201 2.89561ZM18.6192 13.4629C22.2233 13.4629 25.1556 16.3971 25.1556 20.0012C25.1556 23.6052 22.2233 26.5356 18.6192 26.5356C15.0151 26.5356 12.0829 23.6052 12.0829 20.0012C12.0829 16.3971 15.0151 13.4629 18.6192 13.4629ZM18.6192 16.3585C16.6116 16.3585 14.9785 17.9935 14.9785 20.0012C14.9785 22.0088 16.6116 23.64 18.6192 23.64C20.6268 23.64 22.26 22.0088 22.26 20.0012C22.26 17.9935 20.6268 16.3585 18.6192 16.3585Z" fill="#5E5E5E"/>
</svg>
