<svg width="27" height="34" viewBox="0 0 27 34" fill="none" xmlns="http://www.w3.org/2000/svg">
<path fill-rule="evenodd" clip-rule="evenodd" d="M26.4 26.989C26.4 32.4823 18.8667 33.1173 13.2017 33.1173L12.7963 33.117C9.18701 33.1082 0 32.8803 0 26.9557C0 21.5744 7.23059 20.8553 12.8525 20.8282L13.607 20.8277C17.2161 20.8364 26.4 21.0643 26.4 26.989ZM13.2017 23.3273C6.1 23.3273 2.5 24.5473 2.5 26.9557C2.5 29.3857 6.1 30.6173 13.2017 30.6173C20.3017 30.6173 23.9 29.3973 23.9 26.989C23.9 24.559 20.3017 23.3273 13.2017 23.3273ZM13.2017 0C18.0817 0 22.05 3.97 22.05 8.85C22.05 13.73 18.0817 17.6983 13.2017 17.6983H13.1483C8.27833 17.6833 4.33333 13.7117 4.34995 8.845C4.34995 3.97 8.32 0 13.2017 0ZM13.2017 2.38C9.63333 2.38 6.72997 5.28167 6.72997 8.85C6.71833 12.4067 9.6 15.3067 13.1533 15.32L13.2017 16.51V15.32C16.7683 15.32 19.67 12.4167 19.67 8.85C19.67 5.28167 16.7683 2.38 13.2017 2.38Z" fill="white"/>
</svg>
